  <svg  xmlns="http://www.w3.org/2000/svg">
  <symbol id="facebook" viewBox="0 0 8.786 16.53">
    <g>
      <path class="a" d="M128.133,9.228l.455-2.969H125.74V4.332a1.484,1.484,0,0,1,1.674-1.6h1.3V.2a15.793,15.793,0,0,0-2.3-.2,3.625,3.625,0,0,0-3.88,4V6.259h-2.608V9.228h2.608v7.177a10.382,10.382,0,0,0,3.21,0V9.228Z" transform="translate(-119.922)"/>
    </g>
  </symbol>
  <symbol id="instagram" viewBox="0 0 16.53 16.53">
    <g>
      <path class="a" d="M8.265.162c-2.245,0-2.526.01-3.408.05A6.067,6.067,0,0,0,2.851.6a4.051,4.051,0,0,0-1.464.953A4.051,4.051,0,0,0,.434,3.013,6.066,6.066,0,0,0,.05,5.019C.009,5.9,0,6.182,0,8.426s.009,2.526.05,3.408A6.066,6.066,0,0,0,.434,13.84,4.052,4.052,0,0,0,1.387,15.3a4.051,4.051,0,0,0,1.464.953,6.067,6.067,0,0,0,2.006.384c.882.04,1.163.05,3.408.05s2.526-.01,3.408-.05a6.066,6.066,0,0,0,2.006-.384A4.226,4.226,0,0,0,16.1,13.84a6.066,6.066,0,0,0,.384-2.006c.04-.882.05-1.163.05-3.408s-.01-2.526-.05-3.408A6.066,6.066,0,0,0,16.1,3.013a4.051,4.051,0,0,0-.953-1.464A4.052,4.052,0,0,0,13.679.6,6.066,6.066,0,0,0,11.672.211C10.791.171,10.509.162,8.265.162Zm0,1.489c2.207,0,2.468.008,3.34.048a4.574,4.574,0,0,1,1.535.285,2.561,2.561,0,0,1,.95.618,2.561,2.561,0,0,1,.618.95,4.573,4.573,0,0,1,.285,1.535c.04.872.048,1.133.048,3.34s-.008,2.468-.048,3.34a4.573,4.573,0,0,1-.285,1.535,2.737,2.737,0,0,1-1.569,1.569,4.572,4.572,0,0,1-1.535.285c-.871.04-1.133.048-3.34.048s-2.468-.008-3.34-.048a4.572,4.572,0,0,1-1.535-.285,2.561,2.561,0,0,1-.95-.618,2.56,2.56,0,0,1-.618-.95,4.573,4.573,0,0,1-.285-1.535c-.04-.872-.048-1.133-.048-3.34s.008-2.468.048-3.34a4.573,4.573,0,0,1,.285-1.535A2.561,2.561,0,0,1,2.44,2.6a2.561,2.561,0,0,1,.95-.618A4.574,4.574,0,0,1,4.925,1.7C5.8,1.659,6.058,1.651,8.265,1.651Z" transform="translate(0 -0.162)"/><path class="a" d="M128.784,131.7a2.755,2.755,0,1,1,2.755-2.755A2.755,2.755,0,0,1,128.784,131.7Zm0-7a4.244,4.244,0,1,0,4.244,4.244A4.244,4.244,0,0,0,128.784,124.7Z" transform="translate(-120.519 -120.681)"/><path class="a" d="M363.916,89.78a.992.992,0,1,1-.992-.992A.992.992,0,0,1,363.916,89.78Z" transform="translate(-350.247 -85.927)"/>
    </g>
  </symbol>
  <symbol id="cake" viewBox="0 0 24 24">
    <g>
    <path class="b" d="M12,6a2,2,0,0,0,2-2,1.9,1.9,0,0,0-.29-1.03L12,0,10.29,2.97A1.9,1.9,0,0,0,10,4,2.006,2.006,0,0,0,12,6Zm4.6,9.99-1.07-1.07-1.08,1.07a3.543,3.543,0,0,1-4.89,0L8.49,14.92,7.4,15.99A3.435,3.435,0,0,1,4.96,17,3.474,3.474,0,0,1,3,16.39V21a1,1,0,0,0,1,1H20a1,1,0,0,0,1-1V16.39a3.474,3.474,0,0,1-1.96.61A3.435,3.435,0,0,1,16.6,15.99ZM18,9H13V7H11V9H6a3,3,0,0,0-3,3v1.54A1.963,1.963,0,0,0,4.96,15.5a1.919,1.919,0,0,0,1.38-.57L8.48,12.8l2.13,2.13a2.006,2.006,0,0,0,2.77,0l2.14-2.13,2.13,2.13a1.936,1.936,0,0,0,1.38.57,1.963,1.963,0,0,0,1.96-1.96V12A2.981,2.981,0,0,0,18,9Z"/>
    </g>
  </symbol>
  <symbol id="face" viewBox="0 0 24 24">
    <g>
      <path class="a" d="M9,11.75A1.25,1.25,0,1,0,10.25,13,1.25,1.25,0,0,0,9,11.75Zm6,0A1.25,1.25,0,1,0,16.25,13,1.25,1.25,0,0,0,15,11.75ZM12,2A10,10,0,1,0,22,12,10,10,0,0,0,12,2Zm0,18a8.011,8.011,0,0,1-8-8,8.108,8.108,0,0,1,.05-.86A10.062,10.062,0,0,0,9.26,5.77,9.974,9.974,0,0,0,17.42,10a9.76,9.76,0,0,0,2.25-.26A7.988,7.988,0,0,1,12,20Z"/>
    </g>
  </symbol>
  <symbol id="vk" viewBox="0 0 24.001 14">
    <g>
      <path class="a" d="M13.162,18.994a.8.8,0,0,0,.851-.915c-.031-1.917.714-2.949,2.059-1.6,1.488,1.488,1.8,2.519,3.6,2.519h3.2c.808,0,1.126-.26,1.126-.668,0-.863-1.421-2.386-2.625-3.5-1.686-1.565-1.765-1.6-.313-3.486C22.864,9,25.22,6,23.136,6H19.155c-.772,0-.828.435-1.1,1.083-1,2.347-2.886,5.387-3.6,4.922-.751-.485-.407-2.406-.35-5.261.015-.754.011-1.271-1.141-1.539A8.07,8.07,0,0,0,11.148,5C8.875,5,7.307,5.953,8.2,6.119c1.571.293,1.42,3.692,1.054,5.16-.638,2.556-3.036-2.024-4.035-4.3C4.976,6.426,4.9,6,4.042,6H.787C.295,6,0,6.16,0,6.516c0,.6,2.96,6.72,5.786,9.77,2.756,2.975,5.48,2.708,7.376,2.708Z" transform="translate(0 -5)"/>
    </g>
  </symbol>
   <symbol id="rotation" viewBox="0 0 24 24">
     <g>
  <path class="b" d="M7.52,21.48A10.487,10.487,0,0,1,1.55,13H.05A11.994,11.994,0,0,0,12,24l.66-.03L8.85,20.16,7.52,21.48Zm.89-6.52a1.669,1.669,0,0,1-.52-.08,1.069,1.069,0,0,1-.4-.24.991.991,0,0,1-.26-.37,1.193,1.193,0,0,1-.09-.47H5.84a2.046,2.046,0,0,0,.21.95,2.211,2.211,0,0,0,.56.69,2.526,2.526,0,0,0,.82.41,3.016,3.016,0,0,0,.96.15,3.373,3.373,0,0,0,1.03-.15,2.438,2.438,0,0,0,.83-.44,1.978,1.978,0,0,0,.55-.72,2.336,2.336,0,0,0,.2-.97,2.1,2.1,0,0,0-.07-.56,1.67,1.67,0,0,0-.23-.51,1.8,1.8,0,0,0-.4-.43,2.056,2.056,0,0,0-.61-.31,2.1,2.1,0,0,0,.52-.33,2.067,2.067,0,0,0,.37-.42,1.762,1.762,0,0,0,.22-.46,1.594,1.594,0,0,0,.07-.48,2.417,2.417,0,0,0-.18-.96,1.78,1.78,0,0,0-.51-.69,2.057,2.057,0,0,0-.77-.43A3.645,3.645,0,0,0,8.39,8a2.954,2.954,0,0,0-1,.16,2.544,2.544,0,0,0-.79.45,2.248,2.248,0,0,0-.51.67,1.993,1.993,0,0,0-.18.85h1.3a1.063,1.063,0,0,1,.09-.45.94.94,0,0,1,.25-.34,1.185,1.185,0,0,1,.38-.22,1.464,1.464,0,0,1,.48-.08,1.147,1.147,0,0,1,.89.31,1.208,1.208,0,0,1,.29.86,1.525,1.525,0,0,1-.08.49.87.87,0,0,1-.25.37,1.268,1.268,0,0,1-.41.24,1.683,1.683,0,0,1-.58.09H7.5v1.03h.77a2.246,2.246,0,0,1,.6.07,1.2,1.2,0,0,1,.45.23,1.178,1.178,0,0,1,.29.4,1.417,1.417,0,0,1,.1.57,1.2,1.2,0,0,1-.35.93,1.281,1.281,0,0,1-.95.33Zm8.55-5.92a3.33,3.33,0,0,0-1.14-.77A3.762,3.762,0,0,0,14.36,8H12v8h2.3a4.059,4.059,0,0,0,1.51-.27,3.3,3.3,0,0,0,1.16-.76,3.375,3.375,0,0,0,.74-1.19,4.574,4.574,0,0,0,.26-1.57v-.4a4.574,4.574,0,0,0-.26-1.57,3.494,3.494,0,0,0-.75-1.2Zm-.39,3.16a4.368,4.368,0,0,1-.14,1.13,2.431,2.431,0,0,1-.43.85,1.869,1.869,0,0,1-.71.53,2.57,2.57,0,0,1-.99.18h-.91V9.12h.97A1.984,1.984,0,0,1,16,9.81a3.046,3.046,0,0,1,.57,1.99ZM12,0l-.66.03,3.81,3.81,1.33-1.33a10.47,10.47,0,0,1,5.96,8.48h1.5A11.977,11.977,0,0,0,12,0Z"/>
     </g>
    </symbol>
    <symbol id="blaster" viewBox="0 0 21.685 17.602">
      <g>
        <g transform="translate(0)"><path class="a" d="M179.162,299.038a.428.428,0,0,1-.336-.163.435.435,0,0,1-.079-.367l.108-.43a7.552,7.552,0,0,1-1.341.124,1.7,1.7,0,0,0,1.648,2.107.635.635,0,1,0,0-1.271Zm0,0" transform="translate(-169.948 -285.454)"/><path class="a" d="M26.643,272.059c-.234.933-.483,1.931-.672,2.686a2.731,2.731,0,0,0,2.651,3.393,1.552,1.552,0,0,0,1.508-1.179c.172-.688.547-2.187.919-3.675h-.28a7.575,7.575,0,0,1-4.126-1.226Zm0,0" transform="translate(-24.792 -260.536)"/><path class="a" d="M1.338,3.041a7.588,7.588,0,0,1,4.639-1.59H7.361A5.589,5.589,0,0,0,3.616,0H.636A.635.635,0,0,0,.091.962Zm0,0" transform="translate(-0.001)"/><path class="a" d="M11.839,65.961a6.328,6.328,0,0,0-4.3-1.692H5.976A6.339,6.339,0,0,0,.038,68.43.639.639,0,0,0,0,68.647H0a.643.643,0,0,0,.038.217,6.339,6.339,0,0,0,5.939,4.161H7.542a6.328,6.328,0,0,0,4.3-1.692,4.617,4.617,0,0,1,0-5.372Zm-4.4,4.592H4.718a.635.635,0,1,1,0-1.271H7.44a.635.635,0,1,1,0,1.271ZM8.8,68.012H6.079a.635.635,0,0,1,0-1.271H8.8a.635.635,0,0,1,0,1.271Zm0,0" transform="translate(0 -61.548)"/><path class="a" d="M416.189,133.359a1.451,1.451,0,0,0-1.3.816h-1.417v1.271h1.417a1.451,1.451,0,1,0,1.3-2.087Zm0,0" transform="translate(-395.957 -127.711)"/><path class="a" d="M292.557,88.367a3.357,3.357,0,1,0,0,6.714.635.635,0,0,0,.635-.635V89A.635.635,0,0,0,292.557,88.367Zm0,0" transform="translate(-276.951 -84.625)"/></g>
      </g>
    </symbol>
    <symbol id="people_menu" viewBox="0 0 24 24">
      <g>
        <circle class="b" cx="2" cy="2" r="2" transform="translate(14.5 0.38)"/><path class="b" d="M24,11.88V7.18L18.95,5.04a2.134,2.134,0,0,0-2.65.84h0l-1,1.6A4.845,4.845,0,0,1,11.89,9.8l.06.06a3.984,3.984,0,0,0,2.46,1.17A7.173,7.173,0,0,0,16.5,9.39l.6,3-1.16,1.1-.94.89v7.5h2v-6l2.1-2,1.8,8H23l-2.18-11-.62-3.1,1.8.7v3.4h2Z"/><path class="b" d="M10.29,8.09a1.951,1.951,0,0,0,.72.29,2.45,2.45,0,0,0,.38.04,2.089,2.089,0,0,0,.75-.15,1.911,1.911,0,0,0,.66-.44,2.008,2.008,0,0,0,.55-1.8A1.933,1.933,0,0,0,12.8,5a2.063,2.063,0,0,0-.66-.44,1.577,1.577,0,0,0-.37-.11,2.45,2.45,0,0,0-.38-.04,2.068,2.068,0,0,0-.35.03,1.909,1.909,0,0,0-.41.11A2.369,2.369,0,0,0,9.98,5a1.933,1.933,0,0,0-.55,1.03,2.008,2.008,0,0,0,.55,1.8A1.942,1.942,0,0,0,10.29,8.09Z"/><path class="b" d="M11.24,10.56l-2-2a2.513,2.513,0,0,0-.31-.26,1.931,1.931,0,0,0-.72-.28,1.637,1.637,0,0,0-.38-.04,1.993,1.993,0,0,0-1.41.59L3.08,11.91a1.993,1.993,0,0,0-.58,1.54,1.54,1.54,0,0,0,.11.55l1.07,2.95L.05,20.58,1.46,22,5.7,17.76V15.54L7,16.75v5.13H9v-6L6.88,13.76,9.24,11.4l.71.71h0a7.007,7.007,0,0,0,5.03,2.04l-.14-2.07A5.064,5.064,0,0,1,11.24,10.56Z"/>
      </g>
    </symbol>
</svg>
